<svg width="18" height="21" viewBox="0 0 18 21" fill="none" xmlns="http://www.w3.org/2000/svg">
<path d="M14.1429 6.27404V5.01923C14.1429 2.2516 11.8358 0 9 0C6.1642 0 3.85714 2.2516 3.85714 5.01923V6.27404H0V16.9399C0 18.6724 1.43908 20.0769 3.21429 20.0769H14.7857C16.5609 20.0769 18 18.6724 18 16.9399V6.27404H14.1429ZM6.42857 5.01923C6.42857 3.63541 7.5821 2.50962 9 2.50962C10.4179 2.50962 11.5714 3.63541 11.5714 5.01923V6.27404H6.42857V5.01923ZM12.8571 9.72476C12.3246 9.72476 11.8929 9.30342 11.8929 8.78365C11.8929 8.26389 12.3246 7.84255 12.8571 7.84255C13.3897 7.84255 13.8214 8.26389 13.8214 8.78365C13.8214 9.30342 13.3897 9.72476 12.8571 9.72476ZM5.14286 9.72476C4.61029 9.72476 4.17857 9.30342 4.17857 8.78365C4.17857 8.26389 4.61029 7.84255 5.14286 7.84255C5.67542 7.84255 6.10714 8.26389 6.10714 8.78365C6.10714 9.30342 5.67542 9.72476 5.14286 9.72476Z" fill="white"/>
</svg>
