<svg width="23" height="12" viewBox="0 0 23 12" fill="none" xmlns="http://www.w3.org/2000/svg">
<path d="M16.8616 12C16.6463 12 16.4288 11.96 16.2208 11.8777C15.598 11.6316 15.1956 11.0588 15.1956 10.4185V9.05953C15.1956 8.71065 15.4917 8.42777 15.857 8.42777C16.2224 8.42777 16.5186 8.71065 16.5186 9.05953V10.4185C16.5186 10.6078 16.6642 10.6856 16.7267 10.7104C16.7904 10.7356 16.9539 10.7794 17.0966 10.6431L21.484 6.44809C21.7426 6.20098 21.7426 5.79892 21.484 5.55182L17.0966 1.35695C16.9539 1.22063 16.7904 1.2643 16.7268 1.28947C16.6642 1.31426 16.5186 1.39223 16.5186 1.58148V5.39983C16.5186 6.09649 15.9251 6.66324 15.1956 6.66324H0.661442C0.296098 6.66324 0 6.38048 0 6.0316C0 5.68271 0.296098 5.39983 0.661442 5.39983H15.1956V1.58148C15.1956 0.941199 15.598 0.36828 16.2208 0.122162C16.8458 -0.12482 17.557 0.00940371 18.0325 0.464137L22.42 4.65901C23.1933 5.39847 23.1933 6.60155 22.42 7.34102L18.0325 11.5359C17.7153 11.8393 17.2931 11.9999 16.8616 12Z" fill="white"/>
</svg>
